<svg xmlns="http://www.w3.org/2000/svg" viewBox="0 0 20.23 17.39"><defs><style>.cls-1{fill:none;stroke:#000;stroke-miterlimit:10;}</style></defs><title>like</title><g id="Layer_2" data-name="Layer 2"><g id="Layer_6" data-name="Layer 6"><path class="cls-1" d="M19.44,8.3A5.8,5.8,0,0,1,17.55,11l-7.12,5.76a.49.49,0,0,1-.31.11.51.51,0,0,1-.31-.11L2.68,11A5.76,5.76,0,0,1,.79,8.3,6.14,6.14,0,0,1,2.42,2,5.44,5.44,0,0,1,8.26.92a4.62,4.62,0,0,1,1.85,1.58A4.67,4.67,0,0,1,12,.92,5.45,5.45,0,0,1,17.81,2,6.14,6.14,0,0,1,19.44,8.3Z"/></g></g></svg>